<mxfile host="app.diagrams.net" agent="Mozilla/5.0 (Windows NT 10.0; Win64; x64) AppleWebKit/537.36 (KHTML, like Gecko) Chrome/128.0.0.0 Safari/537.36" version="27.0.3">
  <diagram name="Page-1" id="7kLVpAbd8zGLOFVyjyV9">
    <mxGraphModel dx="2040" dy="555" grid="1" gridSize="10" guides="1" tooltips="1" connect="1" arrows="1" fold="1" page="1" pageScale="1" pageWidth="850" pageHeight="1100" math="0" shadow="0">
      <root>
        <mxCell id="0" />
        <mxCell id="1" parent="0" />
        <mxCell id="YbHBjPPML3G3iV3Cdc88-1" value="Name" style="ellipse;whiteSpace=wrap;html=1;" vertex="1" parent="1">
          <mxGeometry x="-360" y="180" width="90" height="40" as="geometry" />
        </mxCell>
        <mxCell id="YbHBjPPML3G3iV3Cdc88-3" value="User" style="rounded=1;whiteSpace=wrap;html=1;" vertex="1" parent="1">
          <mxGeometry x="-230" y="230" width="100" height="40" as="geometry" />
        </mxCell>
        <mxCell id="YbHBjPPML3G3iV3Cdc88-5" value="LastName" style="ellipse;whiteSpace=wrap;html=1;" vertex="1" parent="1">
          <mxGeometry x="-340" y="120" width="90" height="40" as="geometry" />
        </mxCell>
        <mxCell id="YbHBjPPML3G3iV3Cdc88-6" value="FirstName" style="ellipse;whiteSpace=wrap;html=1;" vertex="1" parent="1">
          <mxGeometry x="-450" y="130" width="90" height="40" as="geometry" />
        </mxCell>
        <mxCell id="YbHBjPPML3G3iV3Cdc88-8" value="" style="endArrow=none;html=1;rounded=0;entryX=0;entryY=0;entryDx=0;entryDy=0;exitX=0.698;exitY=0.936;exitDx=0;exitDy=0;exitPerimeter=0;" edge="1" parent="1" source="YbHBjPPML3G3iV3Cdc88-6" target="YbHBjPPML3G3iV3Cdc88-1">
          <mxGeometry width="50" height="50" relative="1" as="geometry">
            <mxPoint x="-410" y="220" as="sourcePoint" />
            <mxPoint x="-360" y="170" as="targetPoint" />
          </mxGeometry>
        </mxCell>
        <mxCell id="YbHBjPPML3G3iV3Cdc88-10" value="" style="endArrow=none;html=1;rounded=0;exitX=0.413;exitY=1.025;exitDx=0;exitDy=0;exitPerimeter=0;" edge="1" parent="1" source="YbHBjPPML3G3iV3Cdc88-5">
          <mxGeometry width="50" height="50" relative="1" as="geometry">
            <mxPoint x="-377" y="177" as="sourcePoint" />
            <mxPoint x="-320" y="180" as="targetPoint" />
          </mxGeometry>
        </mxCell>
        <mxCell id="YbHBjPPML3G3iV3Cdc88-11" value="" style="endArrow=none;html=1;rounded=0;entryX=0;entryY=0.25;entryDx=0;entryDy=0;exitX=1;exitY=0.5;exitDx=0;exitDy=0;" edge="1" parent="1" source="YbHBjPPML3G3iV3Cdc88-1" target="YbHBjPPML3G3iV3Cdc88-3">
          <mxGeometry width="50" height="50" relative="1" as="geometry">
            <mxPoint x="-280" y="260" as="sourcePoint" />
            <mxPoint x="-230" y="210" as="targetPoint" />
            <Array as="points">
              <mxPoint x="-250" y="220" />
            </Array>
          </mxGeometry>
        </mxCell>
        <mxCell id="YbHBjPPML3G3iV3Cdc88-12" value="Role" style="ellipse;whiteSpace=wrap;html=1;" vertex="1" parent="1">
          <mxGeometry x="-240" y="140" width="90" height="40" as="geometry" />
        </mxCell>
        <mxCell id="YbHBjPPML3G3iV3Cdc88-13" value="" style="endArrow=none;html=1;rounded=0;entryX=0.5;entryY=0;entryDx=0;entryDy=0;exitX=0.5;exitY=1;exitDx=0;exitDy=0;" edge="1" parent="1" source="YbHBjPPML3G3iV3Cdc88-12" target="YbHBjPPML3G3iV3Cdc88-3">
          <mxGeometry width="50" height="50" relative="1" as="geometry">
            <mxPoint x="-200" y="190" as="sourcePoint" />
            <mxPoint x="-160" y="230" as="targetPoint" />
            <Array as="points">
              <mxPoint x="-180" y="210" />
            </Array>
          </mxGeometry>
        </mxCell>
        <mxCell id="YbHBjPPML3G3iV3Cdc88-14" value="Id" style="ellipse;whiteSpace=wrap;html=1;" vertex="1" parent="1">
          <mxGeometry x="-400" y="230" width="90" height="40" as="geometry" />
        </mxCell>
        <mxCell id="YbHBjPPML3G3iV3Cdc88-15" value="" style="endArrow=none;html=1;rounded=0;entryX=0;entryY=0.5;entryDx=0;entryDy=0;exitX=1;exitY=0.5;exitDx=0;exitDy=0;" edge="1" parent="1" source="YbHBjPPML3G3iV3Cdc88-14" target="YbHBjPPML3G3iV3Cdc88-3">
          <mxGeometry width="50" height="50" relative="1" as="geometry">
            <mxPoint x="-140" y="340" as="sourcePoint" />
            <mxPoint x="-90" y="290" as="targetPoint" />
          </mxGeometry>
        </mxCell>
        <mxCell id="YbHBjPPML3G3iV3Cdc88-16" value="Email" style="ellipse;whiteSpace=wrap;html=1;" vertex="1" parent="1">
          <mxGeometry x="-130" y="150" width="90" height="40" as="geometry" />
        </mxCell>
        <mxCell id="YbHBjPPML3G3iV3Cdc88-17" value="" style="endArrow=none;html=1;rounded=0;entryX=0.5;entryY=1;entryDx=0;entryDy=0;exitX=0.5;exitY=0;exitDx=0;exitDy=0;" edge="1" parent="1" source="YbHBjPPML3G3iV3Cdc88-3" target="YbHBjPPML3G3iV3Cdc88-16">
          <mxGeometry width="50" height="50" relative="1" as="geometry">
            <mxPoint x="-140" y="340" as="sourcePoint" />
            <mxPoint x="-90" y="290" as="targetPoint" />
          </mxGeometry>
        </mxCell>
        <mxCell id="YbHBjPPML3G3iV3Cdc88-18" value="Password" style="ellipse;whiteSpace=wrap;html=1;" vertex="1" parent="1">
          <mxGeometry x="-80" y="200" width="90" height="40" as="geometry" />
        </mxCell>
        <mxCell id="YbHBjPPML3G3iV3Cdc88-19" value="" style="endArrow=none;html=1;rounded=0;entryX=0;entryY=0.597;entryDx=0;entryDy=0;entryPerimeter=0;exitX=1;exitY=0.5;exitDx=0;exitDy=0;" edge="1" parent="1" source="YbHBjPPML3G3iV3Cdc88-3" target="YbHBjPPML3G3iV3Cdc88-18">
          <mxGeometry width="50" height="50" relative="1" as="geometry">
            <mxPoint x="-140" y="340" as="sourcePoint" />
            <mxPoint x="-90" y="290" as="targetPoint" />
          </mxGeometry>
        </mxCell>
        <mxCell id="YbHBjPPML3G3iV3Cdc88-26" value="business" style="rounded=1;whiteSpace=wrap;html=1;" vertex="1" parent="1">
          <mxGeometry x="200" y="230" width="100" height="40" as="geometry" />
        </mxCell>
        <mxCell id="YbHBjPPML3G3iV3Cdc88-27" value="Id" style="ellipse;whiteSpace=wrap;html=1;" vertex="1" parent="1">
          <mxGeometry x="160" y="140" width="90" height="40" as="geometry" />
        </mxCell>
        <mxCell id="YbHBjPPML3G3iV3Cdc88-28" value="" style="endArrow=none;html=1;rounded=0;entryX=0.25;entryY=0;entryDx=0;entryDy=0;exitX=0.5;exitY=1;exitDx=0;exitDy=0;" edge="1" parent="1" source="YbHBjPPML3G3iV3Cdc88-27" target="YbHBjPPML3G3iV3Cdc88-26">
          <mxGeometry width="50" height="50" relative="1" as="geometry">
            <mxPoint x="210" y="189.43" as="sourcePoint" />
            <mxPoint x="290" y="189.43" as="targetPoint" />
          </mxGeometry>
        </mxCell>
        <mxCell id="YbHBjPPML3G3iV3Cdc88-29" value="Name" style="ellipse;whiteSpace=wrap;html=1;" vertex="1" parent="1">
          <mxGeometry x="270" y="140" width="90" height="40" as="geometry" />
        </mxCell>
        <mxCell id="YbHBjPPML3G3iV3Cdc88-30" value="" style="endArrow=none;html=1;rounded=0;entryX=0.444;entryY=1.025;entryDx=0;entryDy=0;entryPerimeter=0;exitX=0.5;exitY=0;exitDx=0;exitDy=0;" edge="1" parent="1" source="YbHBjPPML3G3iV3Cdc88-26" target="YbHBjPPML3G3iV3Cdc88-29">
          <mxGeometry width="50" height="50" relative="1" as="geometry">
            <mxPoint x="120" y="410" as="sourcePoint" />
            <mxPoint x="170" y="360" as="targetPoint" />
          </mxGeometry>
        </mxCell>
        <mxCell id="YbHBjPPML3G3iV3Cdc88-31" value="B_id" style="ellipse;whiteSpace=wrap;html=1;" vertex="1" parent="1">
          <mxGeometry x="-90" y="270" width="90" height="40" as="geometry" />
        </mxCell>
        <mxCell id="YbHBjPPML3G3iV3Cdc88-32" value="" style="endArrow=none;html=1;rounded=0;exitX=0.943;exitY=1.008;exitDx=0;exitDy=0;exitPerimeter=0;" edge="1" parent="1" source="YbHBjPPML3G3iV3Cdc88-3" target="YbHBjPPML3G3iV3Cdc88-31">
          <mxGeometry width="50" height="50" relative="1" as="geometry">
            <mxPoint x="130" y="400" as="sourcePoint" />
            <mxPoint x="180" y="350" as="targetPoint" />
          </mxGeometry>
        </mxCell>
        <mxCell id="YbHBjPPML3G3iV3Cdc88-33" value="" style="endArrow=none;dashed=1;html=1;dashPattern=1 3;strokeWidth=2;rounded=0;" edge="1" parent="1">
          <mxGeometry width="50" height="50" relative="1" as="geometry">
            <mxPoint x="-75" y="300" as="sourcePoint" />
            <mxPoint x="-15" y="300" as="targetPoint" />
            <Array as="points">
              <mxPoint x="-45" y="300" />
            </Array>
          </mxGeometry>
        </mxCell>
        <mxCell id="YbHBjPPML3G3iV3Cdc88-34" value="" style="endArrow=none;html=1;rounded=0;entryX=1;entryY=0.5;entryDx=0;entryDy=0;exitX=0;exitY=0.5;exitDx=0;exitDy=0;" edge="1" parent="1" source="YbHBjPPML3G3iV3Cdc88-26" target="YbHBjPPML3G3iV3Cdc88-3">
          <mxGeometry width="50" height="50" relative="1" as="geometry">
            <mxPoint x="130" y="400" as="sourcePoint" />
            <mxPoint x="180" y="350" as="targetPoint" />
          </mxGeometry>
        </mxCell>
        <mxCell id="YbHBjPPML3G3iV3Cdc88-35" value="Id" style="ellipse;whiteSpace=wrap;html=1;" vertex="1" parent="1">
          <mxGeometry x="370" y="280" width="90" height="40" as="geometry" />
        </mxCell>
        <mxCell id="YbHBjPPML3G3iV3Cdc88-36" value="Country_Id" style="ellipse;whiteSpace=wrap;html=1;" vertex="1" parent="1">
          <mxGeometry x="530" y="370" width="90" height="40" as="geometry" />
        </mxCell>
        <mxCell id="YbHBjPPML3G3iV3Cdc88-37" value="" style="endArrow=none;html=1;rounded=0;entryX=0.5;entryY=1;entryDx=0;entryDy=0;exitX=0.5;exitY=0;exitDx=0;exitDy=0;" edge="1" parent="1" source="YbHBjPPML3G3iV3Cdc88-38" target="YbHBjPPML3G3iV3Cdc88-35">
          <mxGeometry width="50" height="50" relative="1" as="geometry">
            <mxPoint x="220" y="330" as="sourcePoint" />
            <mxPoint x="270" y="280" as="targetPoint" />
          </mxGeometry>
        </mxCell>
        <mxCell id="YbHBjPPML3G3iV3Cdc88-38" value="Country" style="rounded=1;whiteSpace=wrap;html=1;" vertex="1" parent="1">
          <mxGeometry x="350" y="360" width="100" height="40" as="geometry" />
        </mxCell>
        <mxCell id="YbHBjPPML3G3iV3Cdc88-39" value="City" style="rounded=1;whiteSpace=wrap;html=1;" vertex="1" parent="1">
          <mxGeometry x="470" y="450" width="100" height="40" as="geometry" />
        </mxCell>
        <mxCell id="YbHBjPPML3G3iV3Cdc88-41" value="" style="endArrow=none;html=1;rounded=0;entryX=0;entryY=1;entryDx=0;entryDy=0;exitX=0.671;exitY=-0.01;exitDx=0;exitDy=0;exitPerimeter=0;" edge="1" parent="1" source="YbHBjPPML3G3iV3Cdc88-39" target="YbHBjPPML3G3iV3Cdc88-36">
          <mxGeometry width="50" height="50" relative="1" as="geometry">
            <mxPoint x="427" y="378" as="sourcePoint" />
            <mxPoint x="435" y="350" as="targetPoint" />
          </mxGeometry>
        </mxCell>
        <mxCell id="YbHBjPPML3G3iV3Cdc88-44" value="" style="endArrow=none;dashed=1;html=1;dashPattern=1 3;strokeWidth=2;rounded=0;" edge="1" parent="1">
          <mxGeometry width="50" height="50" relative="1" as="geometry">
            <mxPoint x="545" y="400" as="sourcePoint" />
            <mxPoint x="605" y="400" as="targetPoint" />
            <Array as="points">
              <mxPoint x="575" y="400" />
            </Array>
          </mxGeometry>
        </mxCell>
        <mxCell id="YbHBjPPML3G3iV3Cdc88-45" value="Country_id" style="ellipse;whiteSpace=wrap;html=1;" vertex="1" parent="1">
          <mxGeometry x="350" y="200" width="90" height="40" as="geometry" />
        </mxCell>
        <mxCell id="YbHBjPPML3G3iV3Cdc88-46" value="" style="endArrow=none;html=1;rounded=0;entryX=0;entryY=0.5;entryDx=0;entryDy=0;exitX=1;exitY=0.5;exitDx=0;exitDy=0;" edge="1" parent="1" source="YbHBjPPML3G3iV3Cdc88-26" target="YbHBjPPML3G3iV3Cdc88-45">
          <mxGeometry width="50" height="50" relative="1" as="geometry">
            <mxPoint x="110" y="370" as="sourcePoint" />
            <mxPoint x="160" y="320" as="targetPoint" />
          </mxGeometry>
        </mxCell>
        <mxCell id="YbHBjPPML3G3iV3Cdc88-47" value="" style="endArrow=none;dashed=1;html=1;dashPattern=1 3;strokeWidth=2;rounded=0;" edge="1" parent="1">
          <mxGeometry width="50" height="50" relative="1" as="geometry">
            <mxPoint x="370" y="230" as="sourcePoint" />
            <mxPoint x="430" y="230" as="targetPoint" />
            <Array as="points">
              <mxPoint x="400" y="230" />
            </Array>
          </mxGeometry>
        </mxCell>
        <mxCell id="YbHBjPPML3G3iV3Cdc88-48" value="CityName" style="ellipse;whiteSpace=wrap;html=1;" vertex="1" parent="1">
          <mxGeometry x="600" y="430" width="90" height="40" as="geometry" />
        </mxCell>
        <mxCell id="YbHBjPPML3G3iV3Cdc88-49" value="" style="endArrow=none;html=1;rounded=0;entryX=0;entryY=0.5;entryDx=0;entryDy=0;exitX=1;exitY=0.5;exitDx=0;exitDy=0;" edge="1" parent="1" source="YbHBjPPML3G3iV3Cdc88-39" target="YbHBjPPML3G3iV3Cdc88-48">
          <mxGeometry width="50" height="50" relative="1" as="geometry">
            <mxPoint x="110" y="370" as="sourcePoint" />
            <mxPoint x="160" y="320" as="targetPoint" />
          </mxGeometry>
        </mxCell>
        <mxCell id="YbHBjPPML3G3iV3Cdc88-50" value="" style="endArrow=none;html=1;rounded=0;entryX=0.5;entryY=1;entryDx=0;entryDy=0;exitX=0;exitY=0;exitDx=0;exitDy=0;" edge="1" parent="1" source="YbHBjPPML3G3iV3Cdc88-39" target="YbHBjPPML3G3iV3Cdc88-38">
          <mxGeometry width="50" height="50" relative="1" as="geometry">
            <mxPoint x="110" y="370" as="sourcePoint" />
            <mxPoint x="160" y="320" as="targetPoint" />
          </mxGeometry>
        </mxCell>
        <mxCell id="YbHBjPPML3G3iV3Cdc88-51" value="" style="endArrow=none;html=1;rounded=0;entryX=0.5;entryY=1;entryDx=0;entryDy=0;exitX=0;exitY=0;exitDx=0;exitDy=0;" edge="1" parent="1" source="YbHBjPPML3G3iV3Cdc88-38" target="YbHBjPPML3G3iV3Cdc88-26">
          <mxGeometry width="50" height="50" relative="1" as="geometry">
            <mxPoint x="110" y="370" as="sourcePoint" />
            <mxPoint x="160" y="320" as="targetPoint" />
          </mxGeometry>
        </mxCell>
        <mxCell id="YbHBjPPML3G3iV3Cdc88-52" value="CountryName" style="ellipse;whiteSpace=wrap;html=1;" vertex="1" parent="1">
          <mxGeometry x="450" y="310" width="90" height="40" as="geometry" />
        </mxCell>
        <mxCell id="YbHBjPPML3G3iV3Cdc88-53" value="" style="endArrow=none;html=1;rounded=0;entryX=0;entryY=1;entryDx=0;entryDy=0;exitX=0.5;exitY=0;exitDx=0;exitDy=0;" edge="1" parent="1" source="YbHBjPPML3G3iV3Cdc88-38" target="YbHBjPPML3G3iV3Cdc88-52">
          <mxGeometry width="50" height="50" relative="1" as="geometry">
            <mxPoint x="100" y="390" as="sourcePoint" />
            <mxPoint x="150" y="340" as="targetPoint" />
          </mxGeometry>
        </mxCell>
      </root>
    </mxGraphModel>
  </diagram>
</mxfile>
